<?xml version="1.0" encoding="UTF-8" standalone="no"?>
<!-- Created with Inkscape (http://www.inkscape.org/) -->

<svg
   xmlns:dc="http://purl.org/dc/elements/1.1/"
   xmlns:cc="http://creativecommons.org/ns#"
   xmlns:rdf="http://www.w3.org/1999/02/22-rdf-syntax-ns#"
   xmlns:svg="http://www.w3.org/2000/svg"
   xmlns="http://www.w3.org/2000/svg"
   xmlns:sodipodi="http://sodipodi.sourceforge.net/DTD/sodipodi-0.dtd"
   xmlns:inkscape="http://www.inkscape.org/namespaces/inkscape"
   width="210mm"
   height="297mm"
   id="svg2"
   version="1.1"
   inkscape:version="0.48.4 r9939"
   sodipodi:docname="Documento nuevo 1">
  <defs
     id="defs4" />
  <sodipodi:namedview
     id="base"
     pagecolor="#ffffff"
     bordercolor="#666666"
     borderopacity="1.0"
     inkscape:pageopacity="0.0"
     inkscape:pageshadow="2"
     inkscape:zoom="1.4"
     inkscape:cx="336.324"
     inkscape:cy="638.59508"
     inkscape:document-units="px"
     inkscape:current-layer="layer1"
     showgrid="false"
     inkscape:window-width="1280"
     inkscape:window-height="962"
     inkscape:window-x="-8"
     inkscape:window-y="-8"
     inkscape:window-maximized="1" />
  <metadata
     id="metadata7">
    <rdf:RDF>
      <cc:Work
         rdf:about="">
        <dc:format>image/svg+xml</dc:format>
        <dc:type
           rdf:resource="http://purl.org/dc/dcmitype/StillImage" />
        <dc:title></dc:title>
      </cc:Work>
    </rdf:RDF>
  </metadata>
  <g
     inkscape:label="Capa 1"
     inkscape:groupmode="layer"
     id="layer1">
    <path
       style="fill:none;stroke:#000000;stroke-width:1px;stroke-linecap:butt;stroke-linejoin:miter;stroke-opacity:1"
       d="m 297.14286,460.93361 c -10.38216,-75.82046 -8.98526,-63.87326 -7.47391,-104.43413 0.39104,-10.49448 10.06685,-30.36041 22.19791,-39.00338 12.05973,-8.59215 20.02205,-16.4508 38.84743,-18.70534 48.68483,-5.83052 60.53421,19.88597 67.41148,37.22393 10.55581,26.61177 -16.47079,49.06713 3.3028,41.34749 18.98884,-7.41326 12.01689,-3.87695 15.71428,-6.42856 20.67255,-14.26637 -8.11103,43.85986 -37.85714,48.57142 -24.83398,3.93351 -55,-40.71428 -55,-40.71428 0,0 29.20858,11.76103 37.14286,-2.85715 10.74207,-19.79126 10.33159,-36.27589 -10.71429,-44.28571 -17.22658,-6.55624 -33.13476,1.7763 -42.14285,17.85714 -18.1763,32.44753 5.71428,111.42857 5.71428,111.42857 z"
       id="path2985"
       inkscape:connector-curvature="0"
       sodipodi:nodetypes="cssssssscssscc"
       inkscape:export-filename="D:\UNITY PROJECTS\ATC\Assets\Resources\textures\gui\curve_arrow_right.png"
       inkscape:export-xdpi="35.119999"
       inkscape:export-ydpi="35.119999" />
  </g>
</svg>
